<svg xmlns="http://www.w3.org/2000/svg" width="200" height="200" viewBox="0 0 200 200">
  <g fill-rule="evenodd">
    <path d="M42.747122,81.9990174 C58.9655226,93.344021 78.7054673,100 100,100 C121.294533,100 141.034477,93.344021 157.252882,81.9990144 C155.193825,75.4436177 152.039977,69.3730608 148.005622,64.0016292 C134.634094,74.0472141 118.012221,80 100,80 C81.9877797,80 65.3659077,74.0472146 51.9943761,64.0016357 C47.9600255,69.3730625 44.8061777,75.4436199 42.747122,81.9990174 Z" opacity=".5"/>
    <path d="M100,200 C44.7715223,200 0,155.228478 0,100 C0,44.7715223 44.7715223,0 100,0 C137.038592,0 169.374042,20.1365308 186.656057,50.0592979 C182.902635,56.5581213 178.439143,62.5953278 173.371615,68.0648818 C161.041547,39.7757571 132.830213,20 100,20 C55.8172178,20 20,55.8172178 20,100 C20,144.182782 55.8172178,180 100,180 C132.767816,180 160.934295,160.299342 173.301142,132.096319 C178.366895,137.552678 182.830857,143.575528 186.587453,150.059298 C169.288565,179.916659 136.989642,200 100,200 Z"/>
  </g>
</svg>